<svg width="800" height="800" viewBox="0 0 800 800" fill="none" xmlns="http://www.w3.org/2000/svg">
<g clip-path="url(#clip0_18_6)">
<path d="M0 160C0 71.6344 71.6344 0 160 0H640C728.366 0 800 71.6344 800 160V640C800 728.366 728.366 800 640 800H160C71.6344 800 0 728.366 0 640V160Z" fill="white"/>
<mask id="path-3-outside-1_18_6" maskUnits="userSpaceOnUse" x="90" y="90" width="620" height="620" fill="black">
<rect fill="white" x="90" y="90" width="620" height="620"/>
<path d="M659.987 294.46C634.144 268.579 599.72 254.356 563.147 254.356C554.015 254.356 545.007 255.239 536.252 256.965C542.65 214.42 528.804 171.244 497.66 140.104C471.819 114.224 437.392 100 400.82 100C364.247 100 329.862 114.224 304.023 140.104L302.381 141.745C270.985 173.138 258.065 216.061 263.578 257.007C219.261 248.296 172.546 261.972 140.055 294.46C86.6482 347.86 86.6482 434.718 140.055 488.078L141.697 489.718C168.379 516.397 203.437 529.738 238.537 529.738C247.964 529.738 257.391 528.728 266.65 526.794C254.445 573.166 267.281 623.202 302.339 658.256L303.981 659.898C329.822 685.777 364.247 700 400.82 700C437.392 700 471.777 685.777 497.66 659.898C533.687 623.875 545.345 572.661 532.802 526.751C542.187 528.729 551.657 529.738 561.127 529.696C596.985 529.696 632.295 515.682 658.302 489.676L659.945 488.036C713.352 434.635 713.352 347.777 659.945 294.418L659.987 294.46ZM321.993 161.397L323.635 159.756C344.257 139.136 371.655 127.774 400.82 127.774C429.987 127.774 457.385 139.136 478.007 159.756C506.287 188.035 516.642 228.728 505.742 266.938C491.262 273.629 477.88 282.887 466.265 294.501L441.265 319.498C434.237 309.862 425.82 299.677 414.287 294.797V219.428C414.287 211.769 408.06 205.541 400.4 205.541C392.74 205.541 386.512 211.769 386.512 219.428V294.418C372.792 299.762 363.447 312.723 355.577 323.623C351.957 328.672 348.55 333.427 345.268 336.666C344.887 337.047 344.382 337.466 343.963 337.889L321.867 315.795C279.318 273.25 279.318 203.984 321.867 161.439L321.993 161.397ZM463.445 378.624C464.035 379.129 464.622 379.674 465.169 380.181C465.337 380.349 465.507 380.516 465.674 380.686C466.179 381.148 466.642 381.653 467.065 382.116C467.275 382.368 467.527 382.621 467.737 382.873C468.242 383.421 468.662 384.009 469.085 384.556C469.085 384.556 469.167 384.641 469.21 384.726C469.294 384.808 469.337 384.893 469.38 385.018C469.799 385.608 470.137 386.198 470.43 386.746C470.557 386.955 470.642 387.165 470.725 387.375C470.935 387.838 471.147 388.303 471.272 388.808C471.314 389.018 471.399 389.185 471.44 389.395C471.609 390.028 471.692 390.7 471.692 391.333C471.692 391.88 471.609 392.425 471.482 392.972C471.482 393.142 471.399 393.31 471.357 393.435C471.23 393.857 471.104 394.277 470.935 394.697C470.895 394.867 470.809 394.992 470.767 395.162C470.514 395.709 470.22 396.255 469.885 396.844C469.547 397.392 469.167 397.939 468.747 398.486C468.662 398.612 468.537 398.739 468.41 398.907C468.032 399.369 467.652 399.832 467.189 400.294C467.105 400.379 467.022 400.506 466.937 400.589C465.842 401.768 464.622 402.904 463.277 404.083C463.192 404.166 463.107 404.208 463.025 404.293C462.349 404.881 461.677 405.428 460.962 406.018C458.015 408.376 454.732 410.772 451.492 413.087C450.102 414.055 448.757 415.065 447.367 416.077C442.99 419.274 438.697 422.598 434.995 426.301C430.155 431.14 425.905 437.074 421.78 442.799C421.19 443.596 420.642 444.396 420.054 445.196C419.675 445.743 419.297 446.248 418.917 446.796C418.832 446.92 418.749 447.048 418.665 447.173C418.327 447.638 417.992 448.058 417.655 448.521C417.57 448.648 417.445 448.773 417.36 448.901C416.392 450.163 415.424 451.425 414.497 452.603L414.414 452.688C413.235 454.118 412.099 455.465 410.922 456.685C410.88 456.727 410.794 456.812 410.752 456.852C410.247 457.4 409.7 457.904 409.195 458.367C409.112 458.452 408.984 458.537 408.9 458.662C408.437 459.084 407.974 459.462 407.469 459.842C407.385 459.882 407.345 459.967 407.26 460.009C407.217 460.051 407.132 460.094 407.093 460.134C406.627 460.471 406.164 460.809 405.702 461.104C405.577 461.186 405.492 461.229 405.364 461.314C404.859 461.609 404.354 461.862 403.892 462.071C403.725 462.157 403.597 462.196 403.43 462.281C403.01 462.449 402.63 462.576 402.21 462.662C402.082 462.662 401.957 462.701 401.872 462.744C401.872 462.744 401.787 462.744 401.705 462.744C401.157 462.871 400.652 462.914 400.105 462.914C399.6 462.914 399.095 462.829 398.59 462.744C398.505 462.744 398.422 462.744 398.337 462.701C398.252 462.701 398.17 462.662 398.085 462.619C397.747 462.534 397.37 462.409 397.033 462.281H396.95C396.78 462.239 396.612 462.157 396.485 462.071C396.107 461.904 395.77 461.734 395.392 461.524C395.223 461.439 395.097 461.357 394.927 461.271C394.465 461.019 394.002 460.724 393.54 460.387C393.412 460.304 393.33 460.219 393.202 460.134C392.782 459.842 392.362 459.504 391.94 459.124C391.857 459.041 391.73 458.957 391.645 458.872C391.182 458.452 390.677 457.989 390.215 457.527C390.13 457.442 390.005 457.317 389.92 457.232C389.457 456.769 389.037 456.305 388.572 455.842C388.489 455.759 388.405 455.675 388.32 455.59C387.815 455.043 387.352 454.497 386.847 453.907C386.679 453.74 386.552 453.528 386.385 453.36C386.174 453.108 386.007 452.898 385.795 452.645C384.785 451.425 383.775 450.121 382.765 448.773C382.682 448.688 382.64 448.606 382.555 448.521C382.217 448.058 381.839 447.553 381.502 447.091C381.42 447.006 381.377 446.92 381.292 446.796C380.325 445.448 379.357 444.101 378.39 442.756C374.265 437.032 370.012 431.1 365.175 426.261C361.217 422.304 356.545 418.769 351.875 415.36C350.822 414.602 349.769 413.802 348.675 413.045C345.435 410.733 342.153 408.333 339.207 405.975C338.49 405.428 337.817 404.841 337.145 404.251C337.06 404.166 336.975 404.123 336.892 404.041C335.545 402.861 334.325 401.726 333.23 400.547C333.147 400.464 333.062 400.337 332.977 400.254C332.557 399.789 332.135 399.327 331.757 398.864C331.63 398.739 331.547 398.612 331.42 398.444C331 397.897 330.62 397.349 330.284 396.802C329.947 396.255 329.652 395.709 329.4 395.12C329.317 394.949 329.274 394.825 329.232 394.657C329.065 394.235 328.937 393.815 328.812 393.395C328.812 393.225 328.727 393.058 328.685 392.93C328.56 392.385 328.474 391.838 328.474 391.29C328.474 390.657 328.56 390.07 328.727 389.437V389.313C328.77 389.142 328.812 388.975 328.895 388.808C329.022 388.385 329.19 387.923 329.4 387.503C329.485 387.293 329.61 387.041 329.737 386.828C329.99 386.365 330.242 385.945 330.537 385.483C330.62 385.313 330.705 385.188 330.832 385.018C330.832 385.018 330.915 384.893 330.957 384.851C331.378 384.261 331.842 383.673 332.347 383.083C332.557 382.831 332.767 382.621 332.977 382.368C333.315 381.989 333.692 381.569 334.072 381.191C334.367 380.896 334.662 380.601 334.955 380.306C335.292 379.969 335.672 379.634 336.05 379.296C336.387 379.002 336.723 378.707 337.06 378.412C337.692 377.866 338.323 377.319 338.997 376.814C339.08 376.729 339.165 376.687 339.25 376.604C342.195 374.205 345.477 371.847 348.76 369.532C354.485 365.411 360.417 361.159 365.257 356.319C370.098 351.479 374.347 345.548 378.472 339.824C378.6 339.656 378.682 339.529 378.81 339.361L378.895 339.277C379.272 338.772 379.61 338.267 379.987 337.762C380.158 337.509 380.325 337.299 380.492 337.047C380.787 336.666 381.039 336.289 381.335 335.909C381.544 335.656 381.712 335.404 381.925 335.151C382.177 334.817 382.43 334.479 382.682 334.142C382.892 333.847 383.102 333.555 383.312 333.302C383.522 333.007 383.775 332.669 383.985 332.374C384.197 332.079 384.407 331.827 384.659 331.535C384.912 331.24 385.122 330.945 385.375 330.649C385.585 330.397 385.795 330.145 386.007 329.85C386.26 329.555 386.469 329.263 386.722 328.967C386.765 328.882 386.847 328.84 386.89 328.797C387.395 328.21 387.9 327.62 388.447 327.03C388.532 326.947 388.615 326.82 388.7 326.735C389.12 326.273 389.582 325.81 390.005 325.348L390.088 325.263C390.172 325.18 390.257 325.095 390.342 325.011C390.762 324.59 391.225 324.169 391.645 323.791C391.73 323.706 391.857 323.622 391.94 323.538C392.445 323.075 392.992 322.655 393.497 322.275C393.54 322.234 393.625 322.191 393.665 322.149C394.13 321.813 394.592 321.518 395.012 321.266C395.18 321.181 395.35 321.098 395.475 321.013C395.855 320.802 396.19 320.634 396.57 320.466C396.697 320.424 396.822 320.382 396.95 320.297C396.95 320.297 397.033 320.297 397.117 320.256C397.495 320.13 397.832 320.003 398.212 319.919C398.295 319.919 398.38 319.919 398.422 319.877C398.505 319.877 398.59 319.877 398.675 319.792C399.18 319.709 399.685 319.625 400.19 319.625C400.737 319.625 401.282 319.709 401.787 319.792C401.787 319.792 401.915 319.792 401.957 319.835C402.039 319.835 402.167 319.877 402.252 319.919C402.672 320.003 403.052 320.171 403.473 320.297C403.64 320.34 403.767 320.424 403.935 320.508C404.44 320.719 404.945 320.971 405.45 321.307L405.535 321.35C406.082 321.686 406.627 322.065 407.174 322.486C407.302 322.57 407.427 322.655 407.512 322.781C407.974 323.159 408.437 323.538 408.9 323.959C408.984 324.043 409.112 324.169 409.195 324.254C410.332 325.305 411.467 326.483 412.604 327.788C412.604 327.788 412.647 327.83 412.69 327.872C413.277 328.545 413.867 329.22 414.414 329.935C414.582 330.145 414.792 330.397 414.962 330.607C415.214 330.902 415.424 331.197 415.677 331.535C415.887 331.787 416.097 332.079 416.307 332.332C416.56 332.627 416.772 332.964 417.024 333.26C417.234 333.555 417.445 333.807 417.655 334.099C417.907 334.437 418.16 334.774 418.412 335.112C418.622 335.364 418.792 335.617 419.002 335.869C419.297 336.247 419.549 336.627 419.843 337.004C420.012 337.257 420.18 337.466 420.347 337.719C420.727 338.224 421.065 338.729 421.442 339.234L421.527 339.319C421.527 339.319 421.737 339.614 421.862 339.781C425.987 345.505 430.24 351.437 435.077 356.277C439.917 361.116 445.852 365.368 451.577 369.493C455.532 372.309 459.487 375.172 462.897 378.077C462.982 378.119 463.025 378.202 463.064 378.244C463.064 378.244 463.359 378.497 463.487 378.624H463.445ZM161.351 470.151L159.709 468.511C139.087 447.891 127.724 420.494 127.724 391.333C127.724 362.169 139.087 334.774 159.709 314.154C188.875 284.991 232.434 274.85 271.448 287.853C278.098 305.232 288.409 321.476 302.381 335.489L321.825 354.932C313.997 361.244 306.632 368.733 302.971 378.329H224.859C217.199 378.329 210.97 384.556 210.97 392.215C210.97 399.874 217.199 406.103 224.859 406.103H303.644C309.283 419.106 321.783 428.11 332.388 435.685C336.135 438.379 339.67 440.946 342.615 443.386L315.806 470.193C273.216 512.738 203.984 512.738 161.393 470.193L161.351 470.151ZM478.047 640.372C457.427 660.992 430.027 672.354 400.862 672.354C371.697 672.354 344.3 660.992 323.635 640.372L321.993 638.73C289.208 605.949 280.833 556.712 300.446 515.052C313.029 508.698 324.855 500.282 335.335 489.761L360.082 465.016C367.025 474.317 375.317 483.826 386.595 488.203V570.641C386.595 578.3 392.825 584.529 400.485 584.529C408.142 584.529 414.372 578.3 414.372 570.641V487.826C427.587 482.272 436.677 469.646 444.337 458.957C445.305 457.652 446.232 456.347 447.157 455.085L478.047 485.974C498.67 506.594 510.035 533.988 510.035 563.152C510.035 592.313 498.67 619.71 478.047 640.33V640.372ZM640.332 468.511L638.689 470.151C609.147 499.692 564.662 509.791 525.227 495.947L518.702 493.465C512.98 483.787 505.952 474.653 497.66 466.364L467.232 435.937C467.232 435.937 467.527 435.727 467.694 435.602C478.259 428.028 490.757 419.022 496.439 406.018H576.149C583.81 406.018 590.039 399.789 590.039 392.132C590.039 384.473 583.81 378.244 576.149 378.244H497.072C491.809 364.315 478.722 354.89 467.694 346.978C464.707 344.831 461.844 342.769 459.32 340.749L484.487 315.584C504.942 295.133 532.382 282.635 561.337 282.13C591.175 281.625 619.332 293.029 640.374 314.07C682.922 356.614 682.922 425.881 640.374 468.468L640.332 468.511Z"/>
</mask>
<path d="M659.987 294.46C634.144 268.579 599.72 254.356 563.147 254.356C554.015 254.356 545.007 255.239 536.252 256.965C542.65 214.42 528.804 171.244 497.66 140.104C471.819 114.224 437.392 100 400.82 100C364.247 100 329.862 114.224 304.023 140.104L302.381 141.745C270.985 173.138 258.065 216.061 263.578 257.007C219.261 248.296 172.546 261.972 140.055 294.46C86.6482 347.86 86.6482 434.718 140.055 488.078L141.697 489.718C168.379 516.397 203.437 529.738 238.537 529.738C247.964 529.738 257.391 528.728 266.65 526.794C254.445 573.166 267.281 623.202 302.339 658.256L303.981 659.898C329.822 685.777 364.247 700 400.82 700C437.392 700 471.777 685.777 497.66 659.898C533.687 623.875 545.345 572.661 532.802 526.751C542.187 528.729 551.657 529.738 561.127 529.696C596.985 529.696 632.295 515.682 658.302 489.676L659.945 488.036C713.352 434.635 713.352 347.777 659.945 294.418L659.987 294.46ZM321.993 161.397L323.635 159.756C344.257 139.136 371.655 127.774 400.82 127.774C429.987 127.774 457.385 139.136 478.007 159.756C506.287 188.035 516.642 228.728 505.742 266.938C491.262 273.629 477.88 282.887 466.265 294.501L441.265 319.498C434.237 309.862 425.82 299.677 414.287 294.797V219.428C414.287 211.769 408.06 205.541 400.4 205.541C392.74 205.541 386.512 211.769 386.512 219.428V294.418C372.792 299.762 363.447 312.723 355.577 323.623C351.957 328.672 348.55 333.427 345.268 336.666C344.887 337.047 344.382 337.466 343.963 337.889L321.867 315.795C279.318 273.25 279.318 203.984 321.867 161.439L321.993 161.397ZM463.445 378.624C464.035 379.129 464.622 379.674 465.169 380.181C465.337 380.349 465.507 380.516 465.674 380.686C466.179 381.148 466.642 381.653 467.065 382.116C467.275 382.368 467.527 382.621 467.737 382.873C468.242 383.421 468.662 384.009 469.085 384.556C469.085 384.556 469.167 384.641 469.21 384.726C469.294 384.808 469.337 384.893 469.38 385.018C469.799 385.608 470.137 386.198 470.43 386.746C470.557 386.955 470.642 387.165 470.725 387.375C470.935 387.838 471.147 388.303 471.272 388.808C471.314 389.018 471.399 389.185 471.44 389.395C471.609 390.028 471.692 390.7 471.692 391.333C471.692 391.88 471.609 392.425 471.482 392.972C471.482 393.142 471.399 393.31 471.357 393.435C471.23 393.857 471.104 394.277 470.935 394.697C470.895 394.867 470.809 394.992 470.767 395.162C470.514 395.709 470.22 396.255 469.885 396.844C469.547 397.392 469.167 397.939 468.747 398.486C468.662 398.612 468.537 398.739 468.41 398.907C468.032 399.369 467.652 399.832 467.189 400.294C467.105 400.379 467.022 400.506 466.937 400.589C465.842 401.768 464.622 402.904 463.277 404.083C463.192 404.166 463.107 404.208 463.025 404.293C462.349 404.881 461.677 405.428 460.962 406.018C458.015 408.376 454.732 410.772 451.492 413.087C450.102 414.055 448.757 415.065 447.367 416.077C442.99 419.274 438.697 422.598 434.995 426.301C430.155 431.14 425.905 437.074 421.78 442.799C421.19 443.596 420.642 444.396 420.054 445.196C419.675 445.743 419.297 446.248 418.917 446.796C418.832 446.92 418.749 447.048 418.665 447.173C418.327 447.638 417.992 448.058 417.655 448.521C417.57 448.648 417.445 448.773 417.36 448.901C416.392 450.163 415.424 451.425 414.497 452.603L414.414 452.688C413.235 454.118 412.099 455.465 410.922 456.685C410.88 456.727 410.794 456.812 410.752 456.852C410.247 457.4 409.7 457.904 409.195 458.367C409.112 458.452 408.984 458.537 408.9 458.662C408.437 459.084 407.974 459.462 407.469 459.842C407.385 459.882 407.345 459.967 407.26 460.009C407.217 460.051 407.132 460.094 407.093 460.134C406.627 460.471 406.164 460.809 405.702 461.104C405.577 461.186 405.492 461.229 405.364 461.314C404.859 461.609 404.354 461.862 403.892 462.071C403.725 462.157 403.597 462.196 403.43 462.281C403.01 462.449 402.63 462.576 402.21 462.662C402.082 462.662 401.957 462.701 401.872 462.744C401.872 462.744 401.787 462.744 401.705 462.744C401.157 462.871 400.652 462.914 400.105 462.914C399.6 462.914 399.095 462.829 398.59 462.744C398.505 462.744 398.422 462.744 398.337 462.701C398.252 462.701 398.17 462.662 398.085 462.619C397.747 462.534 397.37 462.409 397.033 462.281H396.95C396.78 462.239 396.612 462.157 396.485 462.071C396.107 461.904 395.77 461.734 395.392 461.524C395.223 461.439 395.097 461.357 394.927 461.271C394.465 461.019 394.002 460.724 393.54 460.387C393.412 460.304 393.33 460.219 393.202 460.134C392.782 459.842 392.362 459.504 391.94 459.124C391.857 459.041 391.73 458.957 391.645 458.872C391.182 458.452 390.677 457.989 390.215 457.527C390.13 457.442 390.005 457.317 389.92 457.232C389.457 456.769 389.037 456.305 388.572 455.842C388.489 455.759 388.405 455.675 388.32 455.59C387.815 455.043 387.352 454.497 386.847 453.907C386.679 453.74 386.552 453.528 386.385 453.36C386.174 453.108 386.007 452.898 385.795 452.645C384.785 451.425 383.775 450.121 382.765 448.773C382.682 448.688 382.64 448.606 382.555 448.521C382.217 448.058 381.839 447.553 381.502 447.091C381.42 447.006 381.377 446.92 381.292 446.796C380.325 445.448 379.357 444.101 378.39 442.756C374.265 437.032 370.012 431.1 365.175 426.261C361.217 422.304 356.545 418.769 351.875 415.36C350.822 414.602 349.769 413.802 348.675 413.045C345.435 410.733 342.153 408.333 339.207 405.975C338.49 405.428 337.817 404.841 337.145 404.251C337.06 404.166 336.975 404.123 336.892 404.041C335.545 402.861 334.325 401.726 333.23 400.547C333.147 400.464 333.062 400.337 332.977 400.254C332.557 399.789 332.135 399.327 331.757 398.864C331.63 398.739 331.547 398.612 331.42 398.444C331 397.897 330.62 397.349 330.284 396.802C329.947 396.255 329.652 395.709 329.4 395.12C329.317 394.949 329.274 394.825 329.232 394.657C329.065 394.235 328.937 393.815 328.812 393.395C328.812 393.225 328.727 393.058 328.685 392.93C328.56 392.385 328.474 391.838 328.474 391.29C328.474 390.657 328.56 390.07 328.727 389.437V389.313C328.77 389.142 328.812 388.975 328.895 388.808C329.022 388.385 329.19 387.923 329.4 387.503C329.485 387.293 329.61 387.041 329.737 386.828C329.99 386.365 330.242 385.945 330.537 385.483C330.62 385.313 330.705 385.188 330.832 385.018C330.832 385.018 330.915 384.893 330.957 384.851C331.378 384.261 331.842 383.673 332.347 383.083C332.557 382.831 332.767 382.621 332.977 382.368C333.315 381.989 333.692 381.569 334.072 381.191C334.367 380.896 334.662 380.601 334.955 380.306C335.292 379.969 335.672 379.634 336.05 379.296C336.387 379.002 336.723 378.707 337.06 378.412C337.692 377.866 338.323 377.319 338.997 376.814C339.08 376.729 339.165 376.687 339.25 376.604C342.195 374.205 345.477 371.847 348.76 369.532C354.485 365.411 360.417 361.159 365.257 356.319C370.098 351.479 374.347 345.548 378.472 339.824C378.6 339.656 378.682 339.529 378.81 339.361L378.895 339.277C379.272 338.772 379.61 338.267 379.987 337.762C380.158 337.509 380.325 337.299 380.492 337.047C380.787 336.666 381.039 336.289 381.335 335.909C381.544 335.656 381.712 335.404 381.925 335.151C382.177 334.817 382.43 334.479 382.682 334.142C382.892 333.847 383.102 333.555 383.312 333.302C383.522 333.007 383.775 332.669 383.985 332.374C384.197 332.079 384.407 331.827 384.659 331.535C384.912 331.24 385.122 330.945 385.375 330.649C385.585 330.397 385.795 330.145 386.007 329.85C386.26 329.555 386.469 329.263 386.722 328.967C386.765 328.882 386.847 328.84 386.89 328.797C387.395 328.21 387.9 327.62 388.447 327.03C388.532 326.947 388.615 326.82 388.7 326.735C389.12 326.273 389.582 325.81 390.005 325.348L390.088 325.263C390.172 325.18 390.257 325.095 390.342 325.011C390.762 324.59 391.225 324.169 391.645 323.791C391.73 323.706 391.857 323.622 391.94 323.538C392.445 323.075 392.992 322.655 393.497 322.275C393.54 322.234 393.625 322.191 393.665 322.149C394.13 321.813 394.592 321.518 395.012 321.266C395.18 321.181 395.35 321.098 395.475 321.013C395.855 320.802 396.19 320.634 396.57 320.466C396.697 320.424 396.822 320.382 396.95 320.297C396.95 320.297 397.033 320.297 397.117 320.256C397.495 320.13 397.832 320.003 398.212 319.919C398.295 319.919 398.38 319.919 398.422 319.877C398.505 319.877 398.59 319.877 398.675 319.792C399.18 319.709 399.685 319.625 400.19 319.625C400.737 319.625 401.282 319.709 401.787 319.792C401.787 319.792 401.915 319.792 401.957 319.835C402.039 319.835 402.167 319.877 402.252 319.919C402.672 320.003 403.052 320.171 403.473 320.297C403.64 320.34 403.767 320.424 403.935 320.508C404.44 320.719 404.945 320.971 405.45 321.307L405.535 321.35C406.082 321.686 406.627 322.065 407.174 322.486C407.302 322.57 407.427 322.655 407.512 322.781C407.974 323.159 408.437 323.538 408.9 323.959C408.984 324.043 409.112 324.169 409.195 324.254C410.332 325.305 411.467 326.483 412.604 327.788C412.604 327.788 412.647 327.83 412.69 327.872C413.277 328.545 413.867 329.22 414.414 329.935C414.582 330.145 414.792 330.397 414.962 330.607C415.214 330.902 415.424 331.197 415.677 331.535C415.887 331.787 416.097 332.079 416.307 332.332C416.56 332.627 416.772 332.964 417.024 333.26C417.234 333.555 417.445 333.807 417.655 334.099C417.907 334.437 418.16 334.774 418.412 335.112C418.622 335.364 418.792 335.617 419.002 335.869C419.297 336.247 419.549 336.627 419.843 337.004C420.012 337.257 420.18 337.466 420.347 337.719C420.727 338.224 421.065 338.729 421.442 339.234L421.527 339.319C421.527 339.319 421.737 339.614 421.862 339.781C425.987 345.505 430.24 351.437 435.077 356.277C439.917 361.116 445.852 365.368 451.577 369.493C455.532 372.309 459.487 375.172 462.897 378.077C462.982 378.119 463.025 378.202 463.064 378.244C463.064 378.244 463.359 378.497 463.487 378.624H463.445ZM161.351 470.151L159.709 468.511C139.087 447.891 127.724 420.494 127.724 391.333C127.724 362.169 139.087 334.774 159.709 314.154C188.875 284.991 232.434 274.85 271.448 287.853C278.098 305.232 288.409 321.476 302.381 335.489L321.825 354.932C313.997 361.244 306.632 368.733 302.971 378.329H224.859C217.199 378.329 210.97 384.556 210.97 392.215C210.97 399.874 217.199 406.103 224.859 406.103H303.644C309.283 419.106 321.783 428.11 332.388 435.685C336.135 438.379 339.67 440.946 342.615 443.386L315.806 470.193C273.216 512.738 203.984 512.738 161.393 470.193L161.351 470.151ZM478.047 640.372C457.427 660.992 430.027 672.354 400.862 672.354C371.697 672.354 344.3 660.992 323.635 640.372L321.993 638.73C289.208 605.949 280.833 556.712 300.446 515.052C313.029 508.698 324.855 500.282 335.335 489.761L360.082 465.016C367.025 474.317 375.317 483.826 386.595 488.203V570.641C386.595 578.3 392.825 584.529 400.485 584.529C408.142 584.529 414.372 578.3 414.372 570.641V487.826C427.587 482.272 436.677 469.646 444.337 458.957C445.305 457.652 446.232 456.347 447.157 455.085L478.047 485.974C498.67 506.594 510.035 533.988 510.035 563.152C510.035 592.313 498.67 619.71 478.047 640.33V640.372ZM640.332 468.511L638.689 470.151C609.147 499.692 564.662 509.791 525.227 495.947L518.702 493.465C512.98 483.787 505.952 474.653 497.66 466.364L467.232 435.937C467.232 435.937 467.527 435.727 467.694 435.602C478.259 428.028 490.757 419.022 496.439 406.018H576.149C583.81 406.018 590.039 399.789 590.039 392.132C590.039 384.473 583.81 378.244 576.149 378.244H497.072C491.809 364.315 478.722 354.89 467.694 346.978C464.707 344.831 461.844 342.769 459.32 340.749L484.487 315.584C504.942 295.133 532.382 282.635 561.337 282.13C591.175 281.625 619.332 293.029 640.374 314.07C682.922 356.614 682.922 425.881 640.374 468.468L640.332 468.511Z" fill="black"/>
<path d="M659.987 294.46C634.144 268.579 599.72 254.356 563.147 254.356C554.015 254.356 545.007 255.239 536.252 256.965C542.65 214.42 528.804 171.244 497.66 140.104C471.819 114.224 437.392 100 400.82 100C364.247 100 329.862 114.224 304.023 140.104L302.381 141.745C270.985 173.138 258.065 216.061 263.578 257.007C219.261 248.296 172.546 261.972 140.055 294.46C86.6482 347.86 86.6482 434.718 140.055 488.078L141.697 489.718C168.379 516.397 203.437 529.738 238.537 529.738C247.964 529.738 257.391 528.728 266.65 526.794C254.445 573.166 267.281 623.202 302.339 658.256L303.981 659.898C329.822 685.777 364.247 700 400.82 700C437.392 700 471.777 685.777 497.66 659.898C533.687 623.875 545.345 572.661 532.802 526.751C542.187 528.729 551.657 529.738 561.127 529.696C596.985 529.696 632.295 515.682 658.302 489.676L659.945 488.036C713.352 434.635 713.352 347.777 659.945 294.418L659.987 294.46ZM321.993 161.397L323.635 159.756C344.257 139.136 371.655 127.774 400.82 127.774C429.987 127.774 457.385 139.136 478.007 159.756C506.287 188.035 516.642 228.728 505.742 266.938C491.262 273.629 477.88 282.887 466.265 294.501L441.265 319.498C434.237 309.862 425.82 299.677 414.287 294.797V219.428C414.287 211.769 408.06 205.541 400.4 205.541C392.74 205.541 386.512 211.769 386.512 219.428V294.418C372.792 299.762 363.447 312.723 355.577 323.623C351.957 328.672 348.55 333.427 345.268 336.666C344.887 337.047 344.382 337.466 343.963 337.889L321.867 315.795C279.318 273.25 279.318 203.984 321.867 161.439L321.993 161.397ZM463.445 378.624C464.035 379.129 464.622 379.674 465.169 380.181C465.337 380.349 465.507 380.516 465.674 380.686C466.179 381.148 466.642 381.653 467.065 382.116C467.275 382.368 467.527 382.621 467.737 382.873C468.242 383.421 468.662 384.009 469.085 384.556C469.085 384.556 469.167 384.641 469.21 384.726C469.294 384.808 469.337 384.893 469.38 385.018C469.799 385.608 470.137 386.198 470.43 386.746C470.557 386.955 470.642 387.165 470.725 387.375C470.935 387.838 471.147 388.303 471.272 388.808C471.314 389.018 471.399 389.185 471.44 389.395C471.609 390.028 471.692 390.7 471.692 391.333C471.692 391.88 471.609 392.425 471.482 392.972C471.482 393.142 471.399 393.31 471.357 393.435C471.23 393.857 471.104 394.277 470.935 394.697C470.895 394.867 470.809 394.992 470.767 395.162C470.514 395.709 470.22 396.255 469.885 396.844C469.547 397.392 469.167 397.939 468.747 398.486C468.662 398.612 468.537 398.739 468.41 398.907C468.032 399.369 467.652 399.832 467.189 400.294C467.105 400.379 467.022 400.506 466.937 400.589C465.842 401.768 464.622 402.904 463.277 404.083C463.192 404.166 463.107 404.208 463.025 404.293C462.349 404.881 461.677 405.428 460.962 406.018C458.015 408.376 454.732 410.772 451.492 413.087C450.102 414.055 448.757 415.065 447.367 416.077C442.99 419.274 438.697 422.598 434.995 426.301C430.155 431.14 425.905 437.074 421.78 442.799C421.19 443.596 420.642 444.396 420.054 445.196C419.675 445.743 419.297 446.248 418.917 446.796C418.832 446.92 418.749 447.048 418.665 447.173C418.327 447.638 417.992 448.058 417.655 448.521C417.57 448.648 417.445 448.773 417.36 448.901C416.392 450.163 415.424 451.425 414.497 452.603L414.414 452.688C413.235 454.118 412.099 455.465 410.922 456.685C410.88 456.727 410.794 456.812 410.752 456.852C410.247 457.4 409.7 457.904 409.195 458.367C409.112 458.452 408.984 458.537 408.9 458.662C408.437 459.084 407.974 459.462 407.469 459.842C407.385 459.882 407.345 459.967 407.26 460.009C407.217 460.051 407.132 460.094 407.093 460.134C406.627 460.471 406.164 460.809 405.702 461.104C405.577 461.186 405.492 461.229 405.364 461.314C404.859 461.609 404.354 461.862 403.892 462.071C403.725 462.157 403.597 462.196 403.43 462.281C403.01 462.449 402.63 462.576 402.21 462.662C402.082 462.662 401.957 462.701 401.872 462.744C401.872 462.744 401.787 462.744 401.705 462.744C401.157 462.871 400.652 462.914 400.105 462.914C399.6 462.914 399.095 462.829 398.59 462.744C398.505 462.744 398.422 462.744 398.337 462.701C398.252 462.701 398.17 462.662 398.085 462.619C397.747 462.534 397.37 462.409 397.033 462.281H396.95C396.78 462.239 396.612 462.157 396.485 462.071C396.107 461.904 395.77 461.734 395.392 461.524C395.223 461.439 395.097 461.357 394.927 461.271C394.465 461.019 394.002 460.724 393.54 460.387C393.412 460.304 393.33 460.219 393.202 460.134C392.782 459.842 392.362 459.504 391.94 459.124C391.857 459.041 391.73 458.957 391.645 458.872C391.182 458.452 390.677 457.989 390.215 457.527C390.13 457.442 390.005 457.317 389.92 457.232C389.457 456.769 389.037 456.305 388.572 455.842C388.489 455.759 388.405 455.675 388.32 455.59C387.815 455.043 387.352 454.497 386.847 453.907C386.679 453.74 386.552 453.528 386.385 453.36C386.174 453.108 386.007 452.898 385.795 452.645C384.785 451.425 383.775 450.121 382.765 448.773C382.682 448.688 382.64 448.606 382.555 448.521C382.217 448.058 381.839 447.553 381.502 447.091C381.42 447.006 381.377 446.92 381.292 446.796C380.325 445.448 379.357 444.101 378.39 442.756C374.265 437.032 370.012 431.1 365.175 426.261C361.217 422.304 356.545 418.769 351.875 415.36C350.822 414.602 349.769 413.802 348.675 413.045C345.435 410.733 342.153 408.333 339.207 405.975C338.49 405.428 337.817 404.841 337.145 404.251C337.06 404.166 336.975 404.123 336.892 404.041C335.545 402.861 334.325 401.726 333.23 400.547C333.147 400.464 333.062 400.337 332.977 400.254C332.557 399.789 332.135 399.327 331.757 398.864C331.63 398.739 331.547 398.612 331.42 398.444C331 397.897 330.62 397.349 330.284 396.802C329.947 396.255 329.652 395.709 329.4 395.12C329.317 394.949 329.274 394.825 329.232 394.657C329.065 394.235 328.937 393.815 328.812 393.395C328.812 393.225 328.727 393.058 328.685 392.93C328.56 392.385 328.474 391.838 328.474 391.29C328.474 390.657 328.56 390.07 328.727 389.437V389.313C328.77 389.142 328.812 388.975 328.895 388.808C329.022 388.385 329.19 387.923 329.4 387.503C329.485 387.293 329.61 387.041 329.737 386.828C329.99 386.365 330.242 385.945 330.537 385.483C330.62 385.313 330.705 385.188 330.832 385.018C330.832 385.018 330.915 384.893 330.957 384.851C331.378 384.261 331.842 383.673 332.347 383.083C332.557 382.831 332.767 382.621 332.977 382.368C333.315 381.989 333.692 381.569 334.072 381.191C334.367 380.896 334.662 380.601 334.955 380.306C335.292 379.969 335.672 379.634 336.05 379.296C336.387 379.002 336.723 378.707 337.06 378.412C337.692 377.866 338.323 377.319 338.997 376.814C339.08 376.729 339.165 376.687 339.25 376.604C342.195 374.205 345.477 371.847 348.76 369.532C354.485 365.411 360.417 361.159 365.257 356.319C370.098 351.479 374.347 345.548 378.472 339.824C378.6 339.656 378.682 339.529 378.81 339.361L378.895 339.277C379.272 338.772 379.61 338.267 379.987 337.762C380.158 337.509 380.325 337.299 380.492 337.047C380.787 336.666 381.039 336.289 381.335 335.909C381.544 335.656 381.712 335.404 381.925 335.151C382.177 334.817 382.43 334.479 382.682 334.142C382.892 333.847 383.102 333.555 383.312 333.302C383.522 333.007 383.775 332.669 383.985 332.374C384.197 332.079 384.407 331.827 384.659 331.535C384.912 331.24 385.122 330.945 385.375 330.649C385.585 330.397 385.795 330.145 386.007 329.85C386.26 329.555 386.469 329.263 386.722 328.967C386.765 328.882 386.847 328.84 386.89 328.797C387.395 328.21 387.9 327.62 388.447 327.03C388.532 326.947 388.615 326.82 388.7 326.735C389.12 326.273 389.582 325.81 390.005 325.348L390.088 325.263C390.172 325.18 390.257 325.095 390.342 325.011C390.762 324.59 391.225 324.169 391.645 323.791C391.73 323.706 391.857 323.622 391.94 323.538C392.445 323.075 392.992 322.655 393.497 322.275C393.54 322.234 393.625 322.191 393.665 322.149C394.13 321.813 394.592 321.518 395.012 321.266C395.18 321.181 395.35 321.098 395.475 321.013C395.855 320.802 396.19 320.634 396.57 320.466C396.697 320.424 396.822 320.382 396.95 320.297C396.95 320.297 397.033 320.297 397.117 320.256C397.495 320.13 397.832 320.003 398.212 319.919C398.295 319.919 398.38 319.919 398.422 319.877C398.505 319.877 398.59 319.877 398.675 319.792C399.18 319.709 399.685 319.625 400.19 319.625C400.737 319.625 401.282 319.709 401.787 319.792C401.787 319.792 401.915 319.792 401.957 319.835C402.039 319.835 402.167 319.877 402.252 319.919C402.672 320.003 403.052 320.171 403.473 320.297C403.64 320.34 403.767 320.424 403.935 320.508C404.44 320.719 404.945 320.971 405.45 321.307L405.535 321.35C406.082 321.686 406.627 322.065 407.174 322.486C407.302 322.57 407.427 322.655 407.512 322.781C407.974 323.159 408.437 323.538 408.9 323.959C408.984 324.043 409.112 324.169 409.195 324.254C410.332 325.305 411.467 326.483 412.604 327.788C412.604 327.788 412.647 327.83 412.69 327.872C413.277 328.545 413.867 329.22 414.414 329.935C414.582 330.145 414.792 330.397 414.962 330.607C415.214 330.902 415.424 331.197 415.677 331.535C415.887 331.787 416.097 332.079 416.307 332.332C416.56 332.627 416.772 332.964 417.024 333.26C417.234 333.555 417.445 333.807 417.655 334.099C417.907 334.437 418.16 334.774 418.412 335.112C418.622 335.364 418.792 335.617 419.002 335.869C419.297 336.247 419.549 336.627 419.843 337.004C420.012 337.257 420.18 337.466 420.347 337.719C420.727 338.224 421.065 338.729 421.442 339.234L421.527 339.319C421.527 339.319 421.737 339.614 421.862 339.781C425.987 345.505 430.24 351.437 435.077 356.277C439.917 361.116 445.852 365.368 451.577 369.493C455.532 372.309 459.487 375.172 462.897 378.077C462.982 378.119 463.025 378.202 463.064 378.244C463.064 378.244 463.359 378.497 463.487 378.624H463.445ZM161.351 470.151L159.709 468.511C139.087 447.891 127.724 420.494 127.724 391.333C127.724 362.169 139.087 334.774 159.709 314.154C188.875 284.991 232.434 274.85 271.448 287.853C278.098 305.232 288.409 321.476 302.381 335.489L321.825 354.932C313.997 361.244 306.632 368.733 302.971 378.329H224.859C217.199 378.329 210.97 384.556 210.97 392.215C210.97 399.874 217.199 406.103 224.859 406.103H303.644C309.283 419.106 321.783 428.11 332.388 435.685C336.135 438.379 339.67 440.946 342.615 443.386L315.806 470.193C273.216 512.738 203.984 512.738 161.393 470.193L161.351 470.151ZM478.047 640.372C457.427 660.992 430.027 672.354 400.862 672.354C371.697 672.354 344.3 660.992 323.635 640.372L321.993 638.73C289.208 605.949 280.833 556.712 300.446 515.052C313.029 508.698 324.855 500.282 335.335 489.761L360.082 465.016C367.025 474.317 375.317 483.826 386.595 488.203V570.641C386.595 578.3 392.825 584.529 400.485 584.529C408.142 584.529 414.372 578.3 414.372 570.641V487.826C427.587 482.272 436.677 469.646 444.337 458.957C445.305 457.652 446.232 456.347 447.157 455.085L478.047 485.974C498.67 506.594 510.035 533.988 510.035 563.152C510.035 592.313 498.67 619.71 478.047 640.33V640.372ZM640.332 468.511L638.689 470.151C609.147 499.692 564.662 509.791 525.227 495.947L518.702 493.465C512.98 483.787 505.952 474.653 497.66 466.364L467.232 435.937C467.232 435.937 467.527 435.727 467.694 435.602C478.259 428.028 490.757 419.022 496.439 406.018H576.149C583.81 406.018 590.039 399.789 590.039 392.132C590.039 384.473 583.81 378.244 576.149 378.244H497.072C491.809 364.315 478.722 354.89 467.694 346.978C464.707 344.831 461.844 342.769 459.32 340.749L484.487 315.584C504.942 295.133 532.382 282.635 561.337 282.13C591.175 281.625 619.332 293.029 640.374 314.07C682.922 356.614 682.922 425.881 640.374 468.468L640.332 468.511Z" stroke="black" stroke-width="20" mask="url(#path-3-outside-1_18_6)"/>
</g>
<defs>
<clipPath id="clip0_18_6">
<rect width="800" height="800" rx="160" fill="white"/>
</clipPath>
</defs>
</svg>
