<svg width="1000" height="1000" viewBox="0 0 1000 1000" fill="none" xmlns="http://www.w3.org/2000/svg">
<g filter="url(#filter0_d_18_5)">
<g clip-path="url(#clip0_18_5)">
<rect x="100" y="100" width="800" height="800" rx="160" fill="white"/>
<path d="M100 260C100 171.634 171.634 100 260 100H740C828.366 100 900 171.634 900 260V740C900 828.366 828.366 900 740 900H260C171.634 900 100 828.366 100 740V260Z" fill="white"/>
</g>
</g>
<path d="M738.321 403.255C714.632 379.531 683.076 366.493 649.552 366.493C641.18 366.493 632.923 367.302 624.897 368.884C630.762 329.885 618.071 290.307 589.522 261.762C565.834 238.038 534.276 225 500.751 225C467.226 225 435.707 238.038 412.021 261.762L410.516 263.266C381.736 292.043 369.893 331.389 374.946 368.923C334.323 360.938 291.5 373.475 261.718 403.255C212.761 452.205 212.761 531.824 261.718 580.738L263.222 582.241C287.681 606.697 319.817 618.927 351.992 618.927C360.634 618.927 369.275 618.001 377.763 616.228C366.574 658.735 378.341 704.602 410.477 736.734L411.982 738.24C435.67 761.962 467.226 775 500.751 775C534.276 775 565.796 761.962 589.522 738.24C622.547 705.218 633.233 658.272 621.735 616.188C630.338 618.001 639.019 618.927 647.7 618.888C680.569 618.888 712.937 606.042 736.777 582.203L738.282 580.699C787.239 531.749 787.239 452.129 738.282 403.216L738.321 403.255ZM428.494 281.281L429.998 279.776C448.902 260.875 474.017 250.459 500.751 250.459C527.488 250.459 552.603 260.875 571.507 279.776C597.43 305.699 606.922 343.001 596.93 378.027C583.657 384.16 571.39 392.647 560.742 403.293L537.826 426.207C531.384 417.373 523.668 408.038 513.096 403.563V334.475C513.096 327.455 507.388 321.746 500.366 321.746C493.345 321.746 487.636 327.455 487.636 334.475V403.216C475.059 408.115 466.493 419.996 459.279 429.987C455.961 434.616 452.837 438.975 449.829 441.944C449.48 442.293 449.017 442.678 448.632 443.065L428.378 422.812C389.375 383.813 389.375 320.319 428.378 281.319L428.494 281.281ZM558.158 480.405C558.698 480.868 559.237 481.368 559.739 481.833C559.892 481.987 560.048 482.14 560.202 482.296C560.664 482.719 561.089 483.182 561.476 483.606C561.668 483.838 561.9 484.069 562.092 484.3C562.555 484.803 562.94 485.341 563.327 485.843C563.327 485.843 563.403 485.921 563.442 485.998C563.52 486.074 563.559 486.152 563.598 486.266C563.983 486.807 564.293 487.348 564.561 487.85C564.677 488.042 564.755 488.235 564.831 488.427C565.024 488.852 565.218 489.277 565.333 489.74C565.371 489.933 565.45 490.087 565.486 490.279C565.642 490.859 565.718 491.475 565.718 492.055C565.718 492.557 565.642 493.056 565.525 493.558C565.525 493.714 565.45 493.867 565.411 493.982C565.294 494.369 565.179 494.754 565.024 495.139C564.987 495.295 564.909 495.41 564.87 495.565C564.638 496.067 564.368 496.567 564.061 497.107C563.752 497.609 563.403 498.111 563.018 498.612C562.94 498.727 562.826 498.844 562.709 498.998C562.363 499.422 562.014 499.846 561.59 500.269C561.513 500.347 561.437 500.464 561.359 500.54C560.355 501.621 559.237 502.662 558.004 503.743C557.926 503.819 557.848 503.858 557.773 503.936C557.154 504.474 556.538 504.976 555.882 505.517C553.18 507.678 550.171 509.875 547.201 511.997C545.927 512.883 544.694 513.809 543.42 514.737C539.407 517.668 535.472 520.715 532.078 524.109C527.642 528.545 523.746 533.985 519.965 539.232C519.424 539.963 518.922 540.696 518.383 541.43C518.035 541.931 517.689 542.394 517.341 542.896C517.263 543.01 517.187 543.128 517.109 543.242C516.8 543.668 516.493 544.053 516.184 544.477C516.106 544.594 515.991 544.708 515.913 544.826C515.026 545.983 514.139 547.14 513.289 548.219L513.213 548.297C512.132 549.608 511.091 550.843 510.012 551.961C509.973 552 509.895 552.078 509.856 552.114C509.393 552.616 508.892 553.079 508.429 553.503C508.353 553.581 508.236 553.659 508.158 553.773C507.734 554.161 507.31 554.507 506.847 554.855C506.77 554.892 506.733 554.97 506.655 555.008C506.616 555.047 506.538 555.086 506.501 555.123C506.075 555.432 505.651 555.742 505.227 556.012C505.112 556.087 505.035 556.127 504.917 556.205C504.454 556.475 503.992 556.706 503.568 556.899C503.414 556.977 503.297 557.013 503.144 557.091C502.759 557.245 502.41 557.362 502.026 557.44C501.909 557.44 501.794 557.476 501.716 557.515C501.716 557.515 501.638 557.515 501.563 557.515C501.061 557.632 500.598 557.671 500.096 557.671C499.633 557.671 499.17 557.593 498.707 557.515C498.629 557.515 498.554 557.515 498.475 557.476C498.398 557.476 498.322 557.44 498.244 557.4C497.935 557.323 497.589 557.208 497.28 557.091H497.204C497.048 557.053 496.894 556.977 496.778 556.899C496.431 556.745 496.122 556.59 495.776 556.397C495.621 556.319 495.506 556.243 495.35 556.165C494.926 555.934 494.502 555.664 494.078 555.355C493.961 555.279 493.886 555.201 493.768 555.123C493.384 554.855 492.999 554.546 492.611 554.197C492.536 554.121 492.419 554.044 492.341 553.966C491.917 553.581 491.454 553.157 491.03 552.733C490.952 552.655 490.838 552.541 490.76 552.463C490.336 552.039 489.951 551.613 489.524 551.188C489.449 551.113 489.371 551.035 489.293 550.957C488.83 550.456 488.406 549.956 487.943 549.415C487.789 549.262 487.673 549.067 487.52 548.913C487.327 548.682 487.173 548.49 486.979 548.258C486.053 547.14 485.127 545.944 484.201 544.708C484.126 544.631 484.086 544.555 484.009 544.477C483.699 544.053 483.353 543.591 483.044 543.166C482.968 543.088 482.929 543.01 482.851 542.896C481.964 541.661 481.078 540.426 480.191 539.193C476.409 533.946 472.511 528.508 468.077 524.072C464.449 520.445 460.166 517.205 455.885 514.08C454.92 513.386 453.955 512.652 452.952 511.958C449.982 509.838 446.973 507.638 444.273 505.477C443.615 504.976 442.999 504.437 442.383 503.897C442.305 503.819 442.227 503.78 442.151 503.704C440.916 502.623 439.798 501.582 438.794 500.501C438.718 500.425 438.64 500.309 438.562 500.233C438.177 499.806 437.79 499.383 437.444 498.959C437.327 498.844 437.252 498.727 437.135 498.574C436.75 498.072 436.401 497.57 436.094 497.068C435.785 496.567 435.514 496.067 435.283 495.526C435.208 495.37 435.168 495.256 435.13 495.102C434.976 494.715 434.859 494.33 434.745 493.945C434.745 493.789 434.667 493.636 434.628 493.519C434.513 493.019 434.435 492.518 434.435 492.016C434.435 491.436 434.513 490.897 434.667 490.318V490.203C434.705 490.047 434.745 489.894 434.82 489.74C434.937 489.353 435.091 488.93 435.283 488.544C435.361 488.352 435.476 488.121 435.592 487.926C435.824 487.502 436.055 487.117 436.326 486.693C436.401 486.537 436.48 486.423 436.596 486.266C436.596 486.266 436.672 486.152 436.711 486.113C437.096 485.572 437.522 485.034 437.985 484.493C438.177 484.262 438.37 484.069 438.562 483.838C438.872 483.49 439.218 483.105 439.566 482.759C439.837 482.488 440.107 482.218 440.375 481.947C440.684 481.638 441.033 481.331 441.379 481.021C441.688 480.752 441.996 480.481 442.305 480.211C442.884 479.711 443.462 479.209 444.081 478.746C444.156 478.668 444.234 478.629 444.312 478.554C447.012 476.354 450.021 474.193 453.03 472.071C458.278 468.293 463.716 464.395 468.152 459.959C472.589 455.523 476.485 450.086 480.266 444.838C480.383 444.685 480.459 444.568 480.575 444.414L480.654 444.337C481 443.874 481.309 443.411 481.655 442.948C481.811 442.716 481.964 442.524 482.118 442.293C482.388 441.944 482.619 441.598 482.89 441.25C483.082 441.018 483.236 440.787 483.431 440.555C483.663 440.249 483.894 439.939 484.126 439.63C484.318 439.36 484.51 439.092 484.703 438.86C484.895 438.589 485.127 438.28 485.319 438.01C485.514 437.739 485.707 437.508 485.938 437.24C486.17 436.97 486.362 436.699 486.594 436.429C486.786 436.197 486.979 435.966 487.173 435.696C487.405 435.425 487.597 435.157 487.829 434.887C487.867 434.809 487.943 434.77 487.982 434.731C488.445 434.193 488.908 433.652 489.41 433.111C489.488 433.035 489.564 432.918 489.642 432.84C490.026 432.417 490.45 431.993 490.838 431.569L490.914 431.491C490.991 431.415 491.069 431.337 491.147 431.26C491.532 430.874 491.956 430.488 492.341 430.142C492.419 430.064 492.536 429.987 492.611 429.91C493.074 429.486 493.576 429.1 494.039 428.752C494.078 428.714 494.156 428.675 494.193 428.637C494.619 428.329 495.043 428.058 495.428 427.827C495.581 427.75 495.737 427.673 495.852 427.595C496.2 427.402 496.507 427.248 496.856 427.094C496.972 427.056 497.087 427.017 497.204 426.939C497.204 426.939 497.28 426.939 497.357 426.901C497.703 426.786 498.013 426.669 498.361 426.593C498.437 426.593 498.515 426.593 498.554 426.554C498.629 426.554 498.707 426.554 498.785 426.476C499.248 426.4 499.711 426.323 500.174 426.323C500.676 426.323 501.175 426.4 501.638 426.476C501.638 426.476 501.755 426.476 501.794 426.515C501.869 426.515 501.987 426.554 502.064 426.593C502.45 426.669 502.798 426.824 503.183 426.939C503.336 426.978 503.453 427.056 503.607 427.132C504.07 427.325 504.533 427.557 504.995 427.865L505.073 427.904C505.575 428.213 506.075 428.56 506.577 428.945C506.694 429.023 506.808 429.1 506.886 429.216C507.31 429.562 507.734 429.91 508.158 430.295C508.236 430.373 508.353 430.488 508.429 430.566C509.471 431.53 510.511 432.609 511.554 433.806C511.554 433.806 511.593 433.844 511.632 433.883C512.171 434.5 512.712 435.118 513.213 435.773C513.367 435.966 513.559 436.197 513.715 436.39C513.947 436.66 514.139 436.931 514.371 437.24C514.563 437.471 514.756 437.739 514.948 437.971C515.18 438.242 515.375 438.551 515.606 438.821C515.798 439.092 515.991 439.323 516.184 439.591C516.415 439.9 516.647 440.21 516.878 440.519C517.07 440.75 517.226 440.982 517.419 441.213C517.689 441.559 517.92 441.908 518.189 442.253C518.344 442.485 518.498 442.678 518.652 442.909C519 443.372 519.31 443.835 519.655 444.297L519.733 444.376C519.733 444.376 519.926 444.646 520.041 444.799C523.822 450.047 527.72 455.484 532.154 459.92C536.591 464.356 542.031 468.254 547.279 472.035C550.904 474.617 554.53 477.241 557.656 479.904C557.733 479.942 557.773 480.018 557.809 480.057C557.809 480.057 558.079 480.289 558.197 480.405H558.158ZM281.238 564.305L279.734 562.802C260.83 543.9 250.414 518.786 250.414 492.055C250.414 465.321 260.83 440.21 279.734 421.308C306.469 394.575 346.398 385.279 382.16 397.198C388.256 413.13 397.708 428.019 410.516 440.865L428.34 458.687C421.164 464.474 414.412 471.339 411.056 480.135H339.454C332.432 480.135 326.723 485.843 326.723 492.863C326.723 499.884 332.432 505.595 339.454 505.595H411.674C416.843 517.514 428.301 525.768 438.022 532.711C441.457 535.181 444.697 537.534 447.397 539.771L422.822 564.343C383.781 603.343 320.319 603.343 281.277 564.343L281.238 564.305ZM571.543 720.341C552.641 739.243 527.525 749.657 500.791 749.657C474.056 749.657 448.942 739.243 429.998 720.341L428.494 718.836C398.441 688.787 390.764 643.653 408.742 605.465C420.277 599.64 431.117 591.925 440.724 582.281L463.409 559.598C469.773 568.124 477.374 576.841 487.712 580.853V656.421C487.712 663.442 493.423 669.152 500.444 669.152C507.464 669.152 513.174 663.442 513.174 656.421V580.507C525.288 575.416 533.621 563.842 540.642 554.044C541.529 552.848 542.38 551.651 543.227 550.494L571.543 578.809C590.447 597.711 600.865 622.822 600.865 649.556C600.865 676.287 590.447 701.401 571.543 720.303V720.341ZM720.304 562.802L718.798 564.305C691.718 591.384 650.94 600.641 614.792 587.952L608.81 585.676C603.565 576.804 597.123 568.432 589.522 560.833L561.63 532.943C561.63 532.943 561.9 532.75 562.053 532.635C571.738 525.692 583.194 517.437 588.403 505.517H661.47C668.492 505.517 674.203 499.806 674.203 492.788C674.203 485.767 668.492 480.057 661.47 480.057H588.983C584.159 467.289 572.162 458.649 562.053 451.397C559.315 449.428 556.691 447.538 554.376 445.686L577.446 422.619C596.197 403.872 621.35 392.415 647.892 391.952C675.243 391.489 701.054 401.943 720.343 421.231C759.345 460.229 759.345 523.724 720.343 562.762L720.304 562.802Z" fill="black"/>
<defs>
<filter id="filter0_d_18_5" x="96" y="100" width="808" height="808" filterUnits="userSpaceOnUse" color-interpolation-filters="sRGB">
<feFlood flood-opacity="0" result="BackgroundImageFix"/>
<feColorMatrix in="SourceAlpha" type="matrix" values="0 0 0 0 0 0 0 0 0 0 0 0 0 0 0 0 0 0 127 0" result="hardAlpha"/>
<feOffset dy="4"/>
<feGaussianBlur stdDeviation="2"/>
<feComposite in2="hardAlpha" operator="out"/>
<feColorMatrix type="matrix" values="0 0 0 0 0 0 0 0 0 0 0 0 0 0 0 0 0 0 0.25 0"/>
<feBlend mode="normal" in2="BackgroundImageFix" result="effect1_dropShadow_18_5"/>
<feBlend mode="normal" in="SourceGraphic" in2="effect1_dropShadow_18_5" result="shape"/>
</filter>
<clipPath id="clip0_18_5">
<rect x="100" y="100" width="800" height="800" rx="160" fill="white"/>
</clipPath>
</defs>
</svg>
